<?xml version="1.0" standalone="no"?><!DOCTYPE svg PUBLIC "-//W3C//DTD SVG 1.1//EN" "http://www.w3.org/Graphics/SVG/1.1/DTD/svg11.dtd"><svg t="1723130000914" class="icon" viewBox="0 0 1024 1024" version="1.1" xmlns="http://www.w3.org/2000/svg" p-id="3517" xmlns:xlink="http://www.w3.org/1999/xlink" width="200" height="200"><path d="M511.36 20.096c-271.744 0-492.032 220.288-492.032 492.032s220.288 492.032 492.032 492.032 492.032-220.288 492.032-492.032S783.104 20.096 511.36 20.096z m117.248 244.352s39.552 13.824 80.512 52.608 57.216 74.752 57.216 74.752L627.2 523.52l1.408-259.072z m-117.248-30.592c55.808 0 92.672 14.976 92.672 14.976v190.848L418.688 251.008s36.864-17.152 92.672-17.152z m-192.256 83.84c40.448-38.144 77.952-53.248 77.952-53.248l137.472 129.536-270.464-1.28s14.464-36.864 55.04-75.008z m-85.888 190.592c0-55.04 15.232-91.52 15.232-91.52h193.408L250.624 599.68s-17.408-36.352-17.408-91.392z m168.576 251.52S362.24 745.984 321.28 707.2s-57.088-74.752-57.216-74.752l139.136-131.84-1.408 259.2z m109.568 30.464c-55.808 0-92.672-14.976-92.672-14.976V584.448L604.032 773.12s-36.864 17.152-92.672 17.152zM711.424 706.56c-40.448 38.144-77.952 53.248-77.952 53.248L495.872 630.272l270.464 1.28s-14.464 36.736-54.912 75.008z m62.848-108.032H582.144l189.952-181.632s17.28 36.224 17.408 90.88c-0.128 54.656-15.232 90.752-15.232 90.752z" fill="#409eff" p-id="3518"></path></svg>